<svg width="26" height="24" viewBox="0 0 26 24" fill="none" xmlns="http://www.w3.org/2000/svg">
<path d="M0.330627 1.125C0.330627 0.501562 0.81155 0 1.40933 0H3.45437C4.44319 0 5.31963 0.6 5.72864 1.5H24.2014C25.3835 1.5 26.2465 2.67188 25.9364 3.8625L24.0936 11.0016C23.7115 12.4734 22.4306 13.5 20.9698 13.5H8.00291L8.24562 14.8359C8.3445 15.3656 8.78946 15.75 9.30634 15.75H22.2643C22.8621 15.75 23.343 16.2516 23.343 16.875C23.343 17.4984 22.8621 18 22.2643 18H9.30634C7.75121 18 6.41631 16.8469 6.12866 15.2578L3.80945 2.55469C3.77798 2.37656 3.62966 2.25 3.45437 2.25H1.40933C0.81155 2.25 0.330627 1.74844 0.330627 1.125ZM6.08371 21.75C6.08371 21.4545 6.13952 21.1619 6.24794 20.889C6.35636 20.616 6.51527 20.3679 6.7156 20.159C6.91594 19.9501 7.15377 19.7843 7.41552 19.6713C7.67727 19.5582 7.95781 19.5 8.24112 19.5C8.52444 19.5 8.80498 19.5582 9.06673 19.6713C9.32847 19.7843 9.56631 19.9501 9.76664 20.159C9.96697 20.3679 10.1259 20.616 10.2343 20.889C10.3427 21.1619 10.3985 21.4545 10.3985 21.75C10.3985 22.0455 10.3427 22.3381 10.2343 22.611C10.1259 22.884 9.96697 23.1321 9.76664 23.341C9.56631 23.5499 9.32847 23.7157 9.06673 23.8287C8.80498 23.9418 8.52444 24 8.24112 24C7.95781 24 7.67727 23.9418 7.41552 23.8287C7.15377 23.7157 6.91594 23.5499 6.7156 23.341C6.51527 23.1321 6.35636 22.884 6.24794 22.611C6.13952 22.3381 6.08371 22.0455 6.08371 21.75ZM21.1856 19.5C21.7577 19.5 22.3065 19.7371 22.7111 20.159C23.1157 20.581 23.343 21.1533 23.343 21.75C23.343 22.3467 23.1157 22.919 22.7111 23.341C22.3065 23.7629 21.7577 24 21.1856 24C20.6134 24 20.0646 23.7629 19.66 23.341C19.2555 22.919 19.0282 22.3467 19.0282 21.75C19.0282 21.1533 19.2555 20.581 19.66 20.159C20.0646 19.7371 20.6134 19.5 21.1856 19.5Z" fill="black"/>
</svg>
