<svg width="104" height="48" viewBox="0 0 104 48" fill="none" xmlns="http://www.w3.org/2000/svg">
<g clip-path="url(#clip0_1_67)">
<path d="M19.7378 15.4762H27.9068L11.7737 46.5792H3.60468L10.6933 32.8968L0.96138 15.4762H9.13041L14.8568 26.0556L19.7378 15.4762Z" fill="black"/>
<path d="M27.1405 33.5621C25.2189 31.4569 24.2581 28.8743 24.2581 25.8153C24.2581 22.7573 25.2189 20.1694 27.1405 18.0513C29.0622 15.9312 31.5026 14.8711 34.464 14.8711C37.1885 14.8711 39.4304 15.7294 41.1897 17.4462V15.4762H48.2784V36.1157H41.2709V33.7809H41.1897C39.4304 35.7413 37.1885 36.7209 34.464 36.7209C31.5026 36.7209 29.0622 35.6683 27.1405 33.5621ZM33.1616 22.3174C32.2414 23.2273 31.7823 24.3936 31.7823 25.8153C31.7823 27.238 32.2222 28.3979 33.1018 29.296C33.9836 30.1951 35.1452 30.6436 36.5864 30.6436C37.9753 30.6436 39.1165 30.1876 40.0111 29.2745C40.9047 28.3625 41.352 27.2091 41.352 25.8153C41.352 24.3936 40.8908 23.2273 39.9684 22.3174C39.0482 21.4054 37.9208 20.9483 36.5864 20.9483C35.2252 20.9483 34.084 21.4054 33.1616 22.3174Z" fill="black"/>
<path d="M70.0875 26.7809H55.197C55.197 28.2294 55.6636 29.3024 56.5977 29.9998C57.5307 30.6983 58.5449 31.047 59.6381 31.047C60.7847 31.047 61.6921 30.8925 62.3583 30.5835C63.0266 30.2745 63.7888 29.664 64.6429 28.7509L69.7672 31.326C67.6321 34.9226 64.0813 36.7209 59.1171 36.7209C56.0223 36.7209 53.3672 35.6554 51.1531 33.5234C48.9379 31.3893 47.8308 28.8196 47.8308 25.8153C47.8308 22.811 48.9379 20.2359 51.1531 18.09C53.3672 15.944 56.0223 14.8711 59.1171 14.8711C62.3732 14.8711 65.0229 15.8174 67.0641 17.708C69.1074 19.5996 70.1302 22.3024 70.1302 25.8153C70.1302 26.2992 70.1152 26.6211 70.0875 26.7809ZM55.3977 22.8367H63.2038C63.0415 21.7638 62.6198 20.9397 61.9398 20.3646C61.2587 19.7874 60.3854 19.4977 59.3178 19.4977C58.1446 19.4977 57.2105 19.8067 56.5165 20.4247C55.8216 21.0406 55.449 21.8443 55.3977 22.8367Z" fill="black"/>
<path d="M69.6834 36.1157V1.51056H76.7678V36.1157H69.6834Z" fill="black"/>
<path d="M82.3677 27.5063C83.6488 27.5063 84.7356 27.9558 85.6302 28.8539C86.5238 29.7531 86.9711 30.8453 86.9711 32.1329C86.9711 33.3925 86.5238 34.4719 85.6302 35.3732C84.7356 36.2713 83.6488 36.7209 82.3677 36.7209C81.1144 36.7209 80.0415 36.2713 79.1479 35.3732C78.2533 34.4719 77.8071 33.3925 77.8071 32.1329C77.8071 30.8453 78.2533 29.7531 79.1479 28.8539C80.0415 27.9558 81.1144 27.5063 82.3677 27.5063Z" fill="black"/>
<path d="M26.0661 41.5692C26.1793 41.5692 26.2721 41.6057 26.3437 41.6765C26.4173 41.7484 26.4547 41.8439 26.4547 41.964V45.4748C26.4547 45.5842 26.4173 45.6765 26.3437 45.7537C26.2721 45.8288 26.1793 45.8653 26.0661 45.8653C25.9551 45.8653 25.8633 45.8299 25.7928 45.758C25.7245 45.684 25.6903 45.5896 25.6903 45.4748V45.2645C25.5505 45.4533 25.3594 45.6153 25.1181 45.7494C24.8758 45.8803 24.6153 45.9469 24.3366 45.9469C23.9715 45.9469 23.6406 45.8524 23.3417 45.6636C23.0427 45.4748 22.8089 45.2119 22.6413 44.8739C22.4727 44.537 22.3894 44.1572 22.3894 43.7366C22.3894 43.316 22.4727 42.9372 22.6413 42.5992C22.8089 42.2623 23.0406 41.9984 23.3374 41.8095C23.6331 41.6207 23.9576 41.5263 24.311 41.5263C24.595 41.5263 24.8597 41.5863 25.1053 41.7065C25.3498 41.8245 25.5451 41.9748 25.6903 42.1572V41.964C25.6903 41.8503 25.7245 41.7559 25.7928 41.6808C25.8633 41.6067 25.9551 41.5692 26.0661 41.5692ZM24.4263 45.2344C24.6761 45.2344 24.9003 45.17 25.0967 45.0413C25.2932 44.9104 25.4448 44.7312 25.5537 44.5048C25.6647 44.2795 25.7202 44.023 25.7202 43.7366C25.7202 43.4565 25.6647 43.2033 25.5537 42.9769C25.4448 42.7484 25.2932 42.5681 25.0967 42.4361C24.9003 42.3052 24.6761 42.2387 24.4263 42.2387C24.1722 42.2387 23.948 42.3052 23.7516 42.4361C23.5552 42.5649 23.4014 42.743 23.2904 42.9683C23.1815 43.1947 23.1281 43.4512 23.1281 43.7366C23.1281 44.023 23.1815 44.2795 23.2904 44.5048C23.4014 44.7312 23.5552 44.9104 23.7516 45.0413C23.948 45.17 24.1722 45.2344 24.4263 45.2344Z" fill="black"/>
<path d="M34.944 41.5263C35.0828 41.5263 35.2045 41.5638 35.307 41.6378C35.4095 41.7097 35.4607 41.7999 35.4607 41.9082C35.4607 42.037 35.4266 42.1357 35.3582 42.2044C35.292 42.2709 35.2109 42.3031 35.1148 42.3031C35.0657 42.3031 34.9931 42.2881 34.897 42.2559C34.7828 42.2194 34.6942 42.2001 34.6323 42.2001C34.4636 42.2001 34.3003 42.2591 34.1412 42.376C33.9843 42.4909 33.8562 42.6497 33.7569 42.8524C33.6565 43.0531 33.6074 43.2773 33.6074 43.5263V45.4748C33.6074 45.5842 33.5701 45.6765 33.4964 45.7537C33.4249 45.8288 33.3341 45.8653 33.2231 45.8653C33.1089 45.8653 33.016 45.8299 32.9455 45.758C32.8772 45.684 32.843 45.5896 32.843 45.4748V42.0112C32.843 41.9061 32.8783 41.816 32.9498 41.7409C33.0235 41.6636 33.1142 41.625 33.2231 41.625C33.3341 41.625 33.4249 41.6636 33.4964 41.7409C33.5701 41.816 33.6074 41.9061 33.6074 42.0112V42.4233C33.727 42.1604 33.9042 41.9469 34.1412 41.7838C34.3771 41.6185 34.6451 41.5327 34.944 41.5263Z" fill="black"/>
<path d="M45.4147 43.7451C45.4147 44.1657 45.3207 44.5434 45.1329 44.8782C44.945 45.213 44.6887 45.4748 44.3642 45.6636C44.0397 45.8524 43.681 45.9469 43.2881 45.9469C42.8974 45.9469 42.5408 45.8524 42.2163 45.6636C41.8917 45.4748 41.6355 45.213 41.4476 44.8782C41.2597 44.5434 41.1658 44.1657 41.1658 43.7451C41.1658 43.3245 41.2597 42.9447 41.4476 42.6035C41.6355 42.2634 41.8917 41.9984 42.2163 41.8095C42.5408 41.6207 42.8974 41.5263 43.2881 41.5263C43.681 41.5263 44.0397 41.6207 44.3642 41.8095C44.6887 41.9984 44.945 42.2634 45.1329 42.6035C45.3207 42.9447 45.4147 43.3245 45.4147 43.7451ZM44.6503 43.7451C44.6503 43.4533 44.5884 43.1936 44.4667 42.964C44.3471 42.7355 44.1827 42.5584 43.9756 42.4318C43.7706 42.3031 43.5411 42.2387 43.2881 42.2387C43.0372 42.2387 42.8077 42.3031 42.6006 42.4318C42.3956 42.5584 42.2312 42.7355 42.1095 42.964C41.9899 43.1936 41.9301 43.4533 41.9301 43.7451C41.9301 44.0316 41.9899 44.2881 42.1095 44.5134C42.2312 44.7398 42.3956 44.9168 42.6006 45.0456C42.8077 45.1722 43.0372 45.2344 43.2881 45.2344C43.5411 45.2344 43.7706 45.1722 43.9756 45.0456C44.1827 44.9168 44.3471 44.7398 44.4667 44.5134C44.5884 44.2881 44.6503 44.0316 44.6503 43.7451Z" fill="black"/>
<path d="M56.3932 41.552C57.3327 41.552 57.8024 42.14 57.8024 43.316V45.4747C57.8024 45.5896 57.7661 45.684 57.6957 45.758C57.6273 45.8299 57.5377 45.8653 57.4266 45.8653C57.3124 45.8653 57.2185 45.8288 57.1448 45.7537C57.0733 45.6765 57.0381 45.5842 57.0381 45.4747V43.3245C57.0381 42.6185 56.7434 42.2644 56.1541 42.2644C55.9427 42.2644 55.7527 42.3117 55.5819 42.4061C55.4132 42.5005 55.283 42.6293 55.189 42.7923C55.0951 42.9533 55.0481 43.1303 55.0481 43.3245V45.4747C55.0481 45.5842 55.0118 45.6765 54.9413 45.7537C54.8698 45.8288 54.7769 45.8653 54.6638 45.8653C54.5496 45.8653 54.4567 45.8299 54.3862 45.758C54.3179 45.684 54.2837 45.5896 54.2837 45.4747V43.316C54.2837 42.9984 54.2165 42.7441 54.083 42.552C53.9485 42.361 53.7265 42.2644 53.4169 42.2644C53.0977 42.2644 52.834 42.3664 52.6269 42.5692C52.4219 42.7698 52.3194 43.0187 52.3194 43.316V45.4747C52.3194 45.5842 52.282 45.6765 52.2084 45.7537C52.1368 45.8288 52.0461 45.8653 51.9351 45.8653C51.8208 45.8653 51.728 45.8299 51.6575 45.758C51.5892 45.684 51.555 45.5896 51.555 45.4747V42.0112C51.555 41.9061 51.5903 41.816 51.6618 41.7408C51.7354 41.6636 51.8262 41.625 51.9351 41.625C52.0461 41.625 52.1368 41.6636 52.2084 41.7408C52.282 41.816 52.3194 41.9061 52.3194 42.0112V42.2945C52.4582 42.0863 52.645 41.9104 52.8788 41.7666C53.1115 41.6239 53.3656 41.552 53.6389 41.552C54.3051 41.552 54.7374 41.8481 54.9371 42.4404C55.0566 42.2151 55.2531 42.0102 55.5264 41.8267C55.7997 41.6443 56.0879 41.552 56.3932 41.552Z" fill="black"/>
<path d="M67.6208 41.5692C67.734 41.5692 67.8269 41.6057 67.8984 41.6765C67.9721 41.7484 68.0094 41.8439 68.0094 41.964V45.4748C68.0094 45.5842 67.9721 45.6765 67.8984 45.7537C67.8269 45.8288 67.734 45.8653 67.6208 45.8653C67.5098 45.8653 67.418 45.8299 67.3475 45.758C67.2792 45.684 67.2451 45.5896 67.2451 45.4748V45.2645C67.1052 45.4533 66.9141 45.6153 66.6728 45.7494C66.4305 45.8803 66.17 45.9469 65.8914 45.9469C65.5263 45.9469 65.1953 45.8524 64.8964 45.6636C64.5975 45.4748 64.3637 45.2119 64.1961 44.8739C64.0274 44.537 63.9441 44.1572 63.9441 43.7366C63.9441 43.316 64.0274 42.9372 64.1961 42.5992C64.3637 42.2623 64.5954 41.9984 64.8921 41.8095C65.1879 41.6207 65.5124 41.5263 65.8658 41.5263C66.1497 41.5263 66.4145 41.5863 66.66 41.7065C66.9045 41.8245 67.0999 41.9748 67.2451 42.1572V41.964C67.2451 41.8503 67.2792 41.7559 67.3475 41.6808C67.418 41.6067 67.5098 41.5692 67.6208 41.5692ZM65.9811 45.2344C66.2309 45.2344 66.4551 45.17 66.6515 45.0413C66.8479 44.9104 66.9995 44.7312 67.1084 44.5048C67.2194 44.2795 67.2749 44.023 67.2749 43.7366C67.2749 43.4565 67.2194 43.2033 67.1084 42.9769C66.9995 42.7484 66.8479 42.5681 66.6515 42.4361C66.4551 42.3052 66.2309 42.2387 65.9811 42.2387C65.727 42.2387 65.5028 42.3052 65.3064 42.4361C65.1099 42.5649 64.9562 42.743 64.8452 42.9683C64.7363 43.1947 64.6829 43.4512 64.6829 43.7366C64.6829 44.023 64.7363 44.2795 64.8452 44.5048C64.9562 44.7312 65.1099 44.9104 65.3064 45.0413C65.5028 45.17 65.727 45.2344 65.9811 45.2344Z" fill="black"/>
<path d="M75.5422 42.376V44.7881C75.5422 45.0574 75.6629 45.1915 75.9052 45.1915C75.9415 45.1915 75.9917 45.1829 76.0547 45.1657C76.1198 45.1464 76.171 45.1357 76.2084 45.1357C76.2789 45.1357 76.3387 45.1657 76.3878 45.2258C76.4358 45.2859 76.4604 45.3621 76.4604 45.4533C76.4604 45.5649 76.3942 45.6625 76.2639 45.7451C76.1358 45.8256 75.9917 45.8653 75.8326 45.8653C75.6533 45.8653 75.4889 45.8471 75.3415 45.8095C75.1964 45.773 75.065 45.6765 74.9487 45.522C74.8344 45.3674 74.7779 45.1346 74.7779 44.8224V42.376H74.3081C74.2057 42.376 74.1202 42.3438 74.0519 42.2773C73.9857 42.2087 73.9537 42.1228 73.9537 42.0198C73.9537 41.9168 73.9857 41.8342 74.0519 41.7709C74.1202 41.7054 74.2057 41.6722 74.3081 41.6722H74.7779V40.9941C74.7779 40.8857 74.8131 40.7945 74.8846 40.7194C74.9551 40.6421 75.048 40.6035 75.1622 40.6035C75.27 40.6035 75.3597 40.6421 75.4312 40.7194C75.5049 40.7945 75.5422 40.8857 75.5422 40.9941V41.6722H76.2084C76.3109 41.6722 76.3942 41.7065 76.4604 41.7752C76.5287 41.8417 76.5628 41.9254 76.5628 42.0284C76.5628 42.1314 76.5287 42.2162 76.4604 42.2816C76.3942 42.3449 76.3109 42.376 76.2084 42.376H75.5422Z" fill="black"/>
<path d="M83.437 45.4748C83.437 45.5842 83.3996 45.6765 83.3259 45.7537C83.2544 45.8288 83.1615 45.8653 83.0484 45.8653C82.9395 45.8653 82.8487 45.8288 82.7751 45.7537C82.7036 45.6765 82.6683 45.5842 82.6683 45.4748V41.9726C82.6683 41.8642 82.7036 41.773 82.7751 41.6979C82.8487 41.6207 82.9395 41.5821 83.0484 41.5821C83.1615 41.5821 83.2544 41.6207 83.3259 41.6979C83.3996 41.773 83.437 41.8642 83.437 41.9726V45.4748ZM83.0484 41.0499C82.8914 41.0499 82.7793 41.022 82.711 40.964C82.6448 40.9072 82.6128 40.817 82.6128 40.6936V40.5649C82.6128 40.434 82.648 40.3417 82.7196 40.2902C82.7932 40.2366 82.9053 40.2087 83.0569 40.2087C83.2074 40.2087 83.3153 40.2376 83.3815 40.2945C83.4498 40.3492 83.4839 40.4394 83.4839 40.5649V40.6936C83.4839 40.8224 83.4476 40.9147 83.3772 40.9683C83.3089 41.023 83.1989 41.0499 83.0484 41.0499Z" fill="black"/>
<path d="M91.6284 41.5263C92.0523 41.5263 92.4056 41.5939 92.6875 41.728C92.9693 41.8632 93.1102 42.0359 93.1102 42.2473C93.1102 42.3396 93.0803 42.4222 93.0206 42.4962C92.9608 42.5681 92.885 42.6035 92.7942 42.6035C92.7259 42.6035 92.6715 42.5939 92.632 42.5735C92.5914 42.5509 92.5359 42.5155 92.4654 42.4662C92.4334 42.4351 92.3821 42.3964 92.3117 42.3503C92.2487 42.3192 92.158 42.2934 92.0384 42.273C91.921 42.2505 91.8142 42.2387 91.7181 42.2387C91.4384 42.2387 91.1907 42.3052 90.9751 42.4361C90.7616 42.5649 90.595 42.7441 90.4755 42.9726C90.358 43.2022 90.3004 43.4565 90.3004 43.7366C90.3004 44.023 90.357 44.2795 90.4712 44.5048C90.5876 44.7312 90.7498 44.9104 90.958 45.0413C91.1683 45.17 91.4075 45.2344 91.6754 45.2344C91.9541 45.2344 92.1804 45.1915 92.3544 45.1057C92.3907 45.0831 92.4409 45.0477 92.5038 44.9984C92.5572 44.9554 92.6042 44.9243 92.6448 44.9039C92.6875 44.8814 92.7366 44.8696 92.7942 44.8696C92.9021 44.8696 92.9864 44.9039 93.0462 44.9726C93.1081 45.0391 93.1401 45.126 93.1401 45.2344C93.1401 45.346 93.0686 45.4576 92.9266 45.5692C92.7868 45.6808 92.5978 45.773 92.3587 45.8439C92.1195 45.9125 91.8612 45.9469 91.5857 45.9469C91.1779 45.9469 90.8182 45.8514 90.5054 45.6593C90.1947 45.4683 89.9556 45.2033 89.788 44.8653C89.6193 44.5284 89.536 44.1518 89.536 43.7366C89.536 43.3224 89.6236 42.9458 89.8008 42.6078C89.9769 42.2709 90.2235 42.0059 90.5395 41.8138C90.8577 41.6228 91.2206 41.5263 91.6284 41.5263Z" fill="black"/>
<path d="M98.941 45.2001C98.8919 45.126 98.8684 45.0531 98.8684 44.9812C98.8684 44.876 98.925 44.7838 99.0392 44.7065C99.0926 44.67 99.1545 44.6507 99.2228 44.6507C99.3189 44.6507 99.4086 44.6915 99.4919 44.7709C99.6509 44.9576 99.8228 45.096 100.009 45.1872C100.193 45.2795 100.415 45.3245 100.675 45.3245C100.877 45.3192 101.056 45.272 101.213 45.1829C101.369 45.0949 101.448 44.9501 101.448 44.7494C101.448 44.567 101.368 44.4265 101.209 44.3288C101.052 44.2323 100.82 44.1421 100.512 44.0584C100.21 43.979 99.9595 43.8943 99.7609 43.8052C99.5645 43.7172 99.3979 43.5885 99.2613 43.419C99.1246 43.2473 99.0563 43.0241 99.0563 42.7494C99.0563 42.5069 99.1246 42.2934 99.2613 42.11C99.3979 41.9275 99.5794 41.7838 99.8079 41.6808C100.035 41.5778 100.284 41.5263 100.555 41.5263C100.811 41.5263 101.065 41.5756 101.32 41.6722C101.576 41.7698 101.785 41.919 101.947 42.1185C102.009 42.1936 102.041 42.2709 102.041 42.3503C102.041 42.4394 101.999 42.5241 101.913 42.6035C101.859 42.6529 101.791 42.6765 101.712 42.6765C101.615 42.6765 101.537 42.6443 101.478 42.5778C101.367 42.449 101.228 42.3503 101.063 42.2816C100.901 42.2108 100.72 42.1743 100.521 42.1743C100.316 42.1743 100.142 42.2162 100 42.2988C99.857 42.3825 99.7865 42.5241 99.7865 42.7237C99.7919 42.9125 99.8741 43.0531 100.034 43.1443C100.193 43.2366 100.437 43.3267 100.764 43.4147C101.048 43.4898 101.285 43.5692 101.473 43.655C101.661 43.7409 101.819 43.8696 101.947 44.0413C102.075 44.2108 102.139 44.4318 102.139 44.7065C102.139 44.9619 102.067 45.1818 101.922 45.3675C101.776 45.5542 101.586 45.6969 101.354 45.7966C101.12 45.8964 100.872 45.9469 100.611 45.9469C100.271 45.9469 99.9584 45.8878 99.6712 45.7709C99.383 45.6507 99.1396 45.4608 98.941 45.2001Z" fill="black"/>
</g>
<defs>
<clipPath id="clip0_1_67">
<rect width="102.486" height="48" fill="white" transform="translate(0.547806)"/>
</clipPath>
</defs>
</svg>
